<svg width="123" height="122" viewBox="0 0 123 122" fill="none" xmlns="http://www.w3.org/2000/svg">
<path d="M123 38.975L33.0153 77.2895C25.5533 80.4465 19.2854 82.0301 14.2168 82.0301C8.47677 82.0301 4.31015 80.0211 1.72715 75.998C0.102522 73.415 -0.374103 70.1401 0.292147 66.1683C0.958397 62.1964 2.73165 57.9683 5.60165 53.4685C7.99502 49.8298 11.9156 45.0481 17.3738 39.1185C15.5224 42.0329 14.1649 45.2329 13.3558 48.5895C11.9208 54.7139 13.2123 59.2085 17.2303 62.0785C19.1419 63.4161 21.771 64.0875 25.1228 64.0875C27.798 64.0875 30.8115 63.657 34.1633 62.796L123 38.975Z" fill="white"/>
</svg>
