<svg width="45" height="43" viewBox="0 0 45 43" fill="none" xmlns="http://www.w3.org/2000/svg">
<path d="M31.875 32.25C29.7938 32.25 28.125 33.8446 28.125 35.8333C28.125 36.7837 28.5201 37.6951 29.2234 38.3671C29.9266 39.0391 30.8804 39.4167 31.875 39.4167C32.8696 39.4167 33.8234 39.0391 34.5267 38.3671C35.2299 37.6951 35.625 36.7837 35.625 35.8333C35.625 34.883 35.2299 33.9716 34.5267 33.2995C33.8234 32.6275 32.8696 32.25 31.875 32.25ZM1.875 3.58334V7.16668H5.625L12.375 20.7654L9.825 25.155C9.54375 25.6567 9.375 26.2479 9.375 26.875C9.375 27.8254 9.77009 28.7368 10.4734 29.4088C11.1766 30.0808 12.1304 30.4583 13.125 30.4583H35.625V26.875H13.9125C13.7882 26.875 13.669 26.8278 13.581 26.7438C13.4931 26.6598 13.4438 26.5459 13.4438 26.4271C13.4438 26.3375 13.4625 26.2658 13.5 26.2121L15.1875 23.2917H29.1563C30.5625 23.2917 31.8 22.5392 32.4375 21.4463L39.15 9.85418C39.2813 9.56751 39.375 9.26293 39.375 8.95834C39.375 8.48316 39.1775 8.02745 38.8258 7.69144C38.4742 7.35544 37.9973 7.16668 37.5 7.16668H9.76875L8.00625 3.58334M13.125 32.25C11.0438 32.25 9.375 33.8446 9.375 35.8333C9.375 36.7837 9.77009 37.6951 10.4734 38.3671C11.1766 39.0391 12.1304 39.4167 13.125 39.4167C14.1196 39.4167 15.0734 39.0391 15.7767 38.3671C16.4799 37.6951 16.875 36.7837 16.875 35.8333C16.875 34.883 16.4799 33.9716 15.7767 33.2995C15.0734 32.6275 14.1196 32.25 13.125 32.25Z" fill="white"/>
</svg>
