<svg width="43" height="43" viewBox="0 0 43 43" fill="none" xmlns="http://www.w3.org/2000/svg">
<g clip-path="url(#clip0_21_20)">
<path fill-rule="evenodd" clip-rule="evenodd" d="M21.5 3.58334C11.6047 3.58334 3.58337 11.6046 3.58337 21.5C3.58337 31.3954 11.6047 39.4167 21.5 39.4167C31.3954 39.4167 39.4167 31.3954 39.4167 21.5C39.4167 11.6046 31.3954 3.58334 21.5 3.58334ZM15.2292 17.0208C15.2292 16.1973 15.3914 15.3819 15.7065 14.6211C16.0217 13.8603 16.4836 13.169 17.0659 12.5867C17.6482 12.0044 18.3395 11.5425 19.1003 11.2273C19.8611 10.9122 20.6765 10.75 21.5 10.75C22.3235 10.75 23.139 10.9122 23.8998 11.2273C24.6606 11.5425 25.3519 12.0044 25.9342 12.5867C26.5165 13.169 26.9784 13.8603 27.2935 14.6211C27.6087 15.3819 27.7709 16.1973 27.7709 17.0208C27.7709 18.684 27.1102 20.279 25.9342 21.455C24.7582 22.631 23.1632 23.2917 21.5 23.2917C19.8369 23.2917 18.2419 22.631 17.0659 21.455C15.8899 20.279 15.2292 18.684 15.2292 17.0208ZM32.7123 30.4297C31.3711 32.1168 29.6661 33.479 27.7246 34.4147C25.7831 35.3504 23.6553 35.8354 21.5 35.8333C19.3448 35.8354 17.217 35.3504 15.2755 34.4147C13.334 33.479 11.629 32.1168 10.2878 30.4297C13.1921 28.346 17.1552 26.875 21.5 26.875C25.8448 26.875 29.808 28.346 32.7123 30.4297Z" fill="white"/>
</g>
<defs>
<clipPath id="clip0_21_20">
<rect width="43" height="43" fill="white"/>
</clipPath>
</defs>
</svg>
